<svg xmlns="http://www.w3.org/2000/svg" xmlns:xlink="http://www.w3.org/1999/xlink" width="70" zoomAndPan="magnify" viewBox="0 0 52.5 30.000001" height="40" preserveAspectRatio="xMidYMid meet" version="1.0"><defs><g/><clipPath id="9903613b88"><path d="M 39.589844 7.546875 L 46.171875 7.546875 L 46.171875 10.203125 L 39.589844 10.203125 Z M 39.589844 7.546875 " clip-rule="nonzero"/></clipPath></defs><g fill="#222222" fill-opacity="1"><g transform="translate(1.870454, 17.766474)"><g><path d="M 8.5625 0 L 8.109375 -5.640625 L 8.046875 -5.640625 L 6.09375 -0.0625 L 4.8125 -0.0625 L 2.859375 -5.640625 L 2.796875 -5.640625 L 2.359375 0 L 0.1875 0 L 1.03125 -9.515625 L 3.34375 -9.515625 L 5.453125 -4.03125 L 7.5625 -9.515625 L 9.875 -9.515625 L 10.71875 0 Z M 8.5625 0 "/></g></g></g><g fill="#222222" fill-opacity="1"><g transform="translate(12.782244, 17.766474)"><g><path d="M 6.671875 -2.671875 L 2.390625 -2.671875 C 2.390625 -2.253906 2.519531 -1.945312 2.78125 -1.75 C 3.050781 -1.550781 3.347656 -1.453125 3.671875 -1.453125 C 3.992188 -1.453125 4.25 -1.492188 4.4375 -1.578125 C 4.632812 -1.671875 4.859375 -1.847656 5.109375 -2.109375 L 6.578125 -1.375 C 5.960938 -0.34375 4.941406 0.171875 3.515625 0.171875 C 2.617188 0.171875 1.851562 -0.128906 1.21875 -0.734375 C 0.582031 -1.347656 0.265625 -2.085938 0.265625 -2.953125 C 0.265625 -3.816406 0.582031 -4.554688 1.21875 -5.171875 C 1.851562 -5.785156 2.617188 -6.09375 3.515625 -6.09375 C 4.453125 -6.09375 5.210938 -5.820312 5.796875 -5.28125 C 6.390625 -4.738281 6.6875 -3.960938 6.6875 -2.953125 C 6.6875 -2.816406 6.679688 -2.722656 6.671875 -2.671875 Z M 2.4375 -3.8125 L 4.6875 -3.8125 C 4.644531 -4.113281 4.523438 -4.347656 4.328125 -4.515625 C 4.128906 -4.679688 3.878906 -4.765625 3.578125 -4.765625 C 3.234375 -4.765625 2.960938 -4.675781 2.765625 -4.5 C 2.566406 -4.320312 2.457031 -4.09375 2.4375 -3.8125 Z M 2.4375 -3.8125 "/></g></g></g><g fill="#222222" fill-opacity="1"><g transform="translate(19.737646, 17.766474)"><g><path d="M 1.09375 -0.734375 C 0.539062 -1.335938 0.265625 -2.078125 0.265625 -2.953125 C 0.265625 -3.828125 0.539062 -4.566406 1.09375 -5.171875 C 1.644531 -5.785156 2.347656 -6.09375 3.203125 -6.09375 C 3.984375 -6.09375 4.628906 -5.84375 5.140625 -5.34375 L 5.140625 -9.921875 L 7.1875 -9.921875 L 7.1875 0 L 5.171875 0 L 5.171875 -0.671875 L 5.140625 -0.671875 C 4.628906 -0.109375 3.984375 0.171875 3.203125 0.171875 C 2.347656 0.171875 1.644531 -0.128906 1.09375 -0.734375 Z M 2.828125 -3.953125 C 2.566406 -3.691406 2.4375 -3.359375 2.4375 -2.953125 C 2.4375 -2.546875 2.5625 -2.210938 2.8125 -1.953125 C 3.0625 -1.691406 3.394531 -1.5625 3.8125 -1.5625 C 4.21875 -1.5625 4.546875 -1.691406 4.796875 -1.953125 C 5.054688 -2.222656 5.1875 -2.554688 5.1875 -2.953125 C 5.1875 -3.359375 5.050781 -3.691406 4.78125 -3.953125 C 4.519531 -4.210938 4.195312 -4.34375 3.8125 -4.34375 C 3.425781 -4.34375 3.097656 -4.210938 2.828125 -3.953125 Z M 2.828125 -3.953125 "/></g></g></g><g fill="#222222" fill-opacity="1"><g transform="translate(27.61582, 17.766474)"><g><path d="M 0.890625 -9.21875 C 1.128906 -9.457031 1.410156 -9.578125 1.734375 -9.578125 C 2.066406 -9.578125 2.351562 -9.457031 2.59375 -9.21875 C 2.832031 -8.976562 2.953125 -8.691406 2.953125 -8.359375 C 2.953125 -8.023438 2.832031 -7.738281 2.59375 -7.5 C 2.351562 -7.269531 2.066406 -7.15625 1.734375 -7.15625 C 1.410156 -7.15625 1.128906 -7.269531 0.890625 -7.5 C 0.648438 -7.738281 0.53125 -8.023438 0.53125 -8.359375 C 0.53125 -8.691406 0.648438 -8.976562 0.890625 -9.21875 Z M 0.6875 -5.921875 L 0.6875 0 L 2.734375 0 L 2.734375 -5.921875 Z M 0.6875 -5.921875 "/></g></g></g><g fill="#222222" fill-opacity="1"><g transform="translate(31.099289, 17.766474)"><g><path d="M 1.09375 -0.734375 C 0.539062 -1.335938 0.265625 -2.078125 0.265625 -2.953125 C 0.265625 -3.828125 0.539062 -4.566406 1.09375 -5.171875 C 1.644531 -5.785156 2.347656 -6.09375 3.203125 -6.09375 C 3.984375 -6.09375 4.628906 -5.84375 5.140625 -5.34375 L 5.140625 -5.921875 L 7.1875 -5.921875 L 7.1875 0 L 5.171875 0 L 5.171875 -0.671875 L 5.140625 -0.671875 C 4.628906 -0.109375 3.984375 0.171875 3.203125 0.171875 C 2.347656 0.171875 1.644531 -0.128906 1.09375 -0.734375 Z M 2.828125 -3.953125 C 2.566406 -3.691406 2.4375 -3.359375 2.4375 -2.953125 C 2.4375 -2.546875 2.5625 -2.210938 2.8125 -1.953125 C 3.0625 -1.691406 3.394531 -1.5625 3.8125 -1.5625 C 4.21875 -1.5625 4.546875 -1.691406 4.796875 -1.953125 C 5.054688 -2.222656 5.1875 -2.554688 5.1875 -2.953125 C 5.1875 -3.359375 5.050781 -3.691406 4.78125 -3.953125 C 4.519531 -4.210938 4.195312 -4.34375 3.8125 -4.34375 C 3.425781 -4.34375 3.097656 -4.210938 2.828125 -3.953125 Z M 2.828125 -3.953125 "/></g></g></g><g fill="#222222" fill-opacity="1"><g transform="translate(38.977463, 17.766474)"><g><path d="M 0.6875 0 L 0.6875 -5.921875 L 2.734375 -5.921875 L 2.734375 -5.296875 L 2.75 -5.296875 C 3.28125 -5.828125 3.847656 -6.09375 4.453125 -6.09375 C 4.742188 -6.09375 5.03125 -6.050781 5.3125 -5.96875 C 5.601562 -5.894531 5.878906 -5.773438 6.140625 -5.609375 C 6.410156 -5.453125 6.628906 -5.222656 6.796875 -4.921875 C 6.960938 -4.628906 7.046875 -4.285156 7.046875 -3.890625 L 7.046875 0 L 5 0 L 5 -3.34375 C 5 -3.65625 4.898438 -3.925781 4.703125 -4.15625 C 4.515625 -4.382812 4.257812 -4.5 3.9375 -4.5 C 3.632812 -4.5 3.359375 -4.378906 3.109375 -4.140625 C 2.859375 -3.898438 2.734375 -3.632812 2.734375 -3.34375 L 2.734375 0 Z M 0.6875 0 "/></g></g></g><g fill="#222222" fill-opacity="1"><g transform="translate(46.601878, 17.766474)"><g><path d="M 2 -2.46875 C 2.375 -2.46875 2.6875 -2.335938 2.9375 -2.078125 C 3.195312 -1.816406 3.328125 -1.503906 3.328125 -1.140625 C 3.328125 -0.773438 3.195312 -0.460938 2.9375 -0.203125 C 2.6875 0.046875 2.375 0.171875 2 0.171875 C 1.644531 0.171875 1.335938 0.046875 1.078125 -0.203125 C 0.816406 -0.460938 0.6875 -0.773438 0.6875 -1.140625 C 0.6875 -1.503906 0.816406 -1.816406 1.078125 -2.078125 C 1.335938 -2.335938 1.644531 -2.46875 2 -2.46875 Z M 2 -2.46875 "/></g></g></g><g clip-path="url(#9903613b88)"><path fill="#f6b21b" d="M 39.597656 7.546875 L 43.757812 7.546875 C 45.121094 7.546875 46.222656 8.734375 46.222656 10.203125 L 39.597656 10.203125 Z M 39.597656 7.546875 " fill-opacity="1" fill-rule="nonzero"/></g></svg>